<svg width="26" height="26" viewBox="0 0 26 26" fill="none" xmlns="http://www.w3.org/2000/svg">
<path d="M4.105 6.41183L0.163574 2.63041L1.88332 0.97998L5.82353 4.76256H24.3481C24.5376 4.76255 24.7244 4.80504 24.8937 4.88663C25.0629 4.96822 25.21 5.08666 25.3231 5.2325C25.4362 5.37833 25.5123 5.54752 25.5451 5.72657C25.578 5.90561 25.5668 6.08955 25.5124 6.2637L22.5956 15.5948C22.5205 15.8351 22.3667 16.0459 22.157 16.1957C21.9472 16.3455 21.6927 16.4264 21.4312 16.4264H6.53573V18.7592H19.9047V21.0919H5.32037C4.99803 21.0919 4.6889 20.9691 4.46098 20.7503C4.23305 20.5316 4.105 20.2349 4.105 19.9256V6.41183ZM6.53573 7.09533V14.0936H20.527L22.7147 7.09533H6.53573ZM5.92805 25.7575C5.44455 25.7575 4.98085 25.5732 4.63896 25.245C4.29707 24.9169 4.105 24.4719 4.105 24.0079C4.105 23.5439 4.29707 23.0989 4.63896 22.7708C4.98085 22.4427 5.44455 22.2583 5.92805 22.2583C6.41155 22.2583 6.87525 22.4427 7.21714 22.7708C7.55903 23.0989 7.7511 23.5439 7.7511 24.0079C7.7511 24.4719 7.55903 24.9169 7.21714 25.245C6.87525 25.5732 6.41155 25.7575 5.92805 25.7575ZM20.5124 25.7575C20.0289 25.7575 19.5652 25.5732 19.2233 25.245C18.8815 24.9169 18.6894 24.4719 18.6894 24.0079C18.6894 23.5439 18.8815 23.0989 19.2233 22.7708C19.5652 22.4427 20.0289 22.2583 20.5124 22.2583C20.9959 22.2583 21.4596 22.4427 21.8015 22.7708C22.1434 23.0989 22.3355 23.5439 22.3355 24.0079C22.3355 24.4719 22.1434 24.9169 21.8015 25.245C21.4596 25.5732 20.9959 25.7575 20.5124 25.7575Z" fill="white"/>
</svg>
